<mxfile host="app.diagrams.net" modified="2024-06-05T07:37:08.657Z" agent="Mozilla/5.0 (Macintosh; Intel Mac OS X 10_15_7) AppleWebKit/537.36 (KHTML, like Gecko) Chrome/124.0.0.0 Safari/537.36" etag="MHXq718aj72qmuaC3cfU" version="24.4.8" type="github">
  <diagram name="第 1 页" id="O04yawujWGSMD5moSQ3h">
    <mxGraphModel dx="1306" dy="701" grid="1" gridSize="10" guides="1" tooltips="1" connect="1" arrows="1" fold="1" page="1" pageScale="1" pageWidth="827" pageHeight="1169" math="0" shadow="0">
      <root>
        <mxCell id="0" />
        <mxCell id="1" parent="0" />
        <mxCell id="XnaU9KFg2EMBAnlqkyF9-1" value="开始" style="ellipse;whiteSpace=wrap;html=1;fillColor=none;" vertex="1" parent="1">
          <mxGeometry x="260" width="120" height="80" as="geometry" />
        </mxCell>
        <mxCell id="XnaU9KFg2EMBAnlqkyF9-11" style="edgeStyle=orthogonalEdgeStyle;rounded=0;orthogonalLoop=1;jettySize=auto;html=1;entryX=0.5;entryY=0;entryDx=0;entryDy=0;" edge="1" parent="1" source="XnaU9KFg2EMBAnlqkyF9-3" target="XnaU9KFg2EMBAnlqkyF9-5">
          <mxGeometry relative="1" as="geometry" />
        </mxCell>
        <mxCell id="XnaU9KFg2EMBAnlqkyF9-15" style="edgeStyle=orthogonalEdgeStyle;rounded=0;orthogonalLoop=1;jettySize=auto;html=1;exitX=1;exitY=0.5;exitDx=0;exitDy=0;entryX=0;entryY=0.5;entryDx=0;entryDy=0;" edge="1" parent="1" source="XnaU9KFg2EMBAnlqkyF9-3" target="XnaU9KFg2EMBAnlqkyF9-14">
          <mxGeometry relative="1" as="geometry" />
        </mxCell>
        <mxCell id="XnaU9KFg2EMBAnlqkyF9-3" value="是否必须生成因子" style="rhombus;whiteSpace=wrap;html=1;fillColor=none;" vertex="1" parent="1">
          <mxGeometry x="245" y="320" width="150" height="70" as="geometry" />
        </mxCell>
        <mxCell id="XnaU9KFg2EMBAnlqkyF9-12" style="edgeStyle=orthogonalEdgeStyle;rounded=0;orthogonalLoop=1;jettySize=auto;html=1;exitX=0.5;exitY=1;exitDx=0;exitDy=0;entryX=0.5;entryY=0;entryDx=0;entryDy=0;" edge="1" parent="1" source="XnaU9KFg2EMBAnlqkyF9-5" target="XnaU9KFg2EMBAnlqkyF9-7">
          <mxGeometry relative="1" as="geometry" />
        </mxCell>
        <mxCell id="XnaU9KFg2EMBAnlqkyF9-5" value="标识位设定为&lt;font color=&quot;#ff0000&quot;&gt;true&lt;/font&gt;" style="rounded=1;whiteSpace=wrap;html=1;fillColor=none;" vertex="1" parent="1">
          <mxGeometry x="260" y="510" width="120" height="60" as="geometry" />
        </mxCell>
        <mxCell id="XnaU9KFg2EMBAnlqkyF9-20" style="edgeStyle=orthogonalEdgeStyle;rounded=0;orthogonalLoop=1;jettySize=auto;html=1;exitX=0.5;exitY=1;exitDx=0;exitDy=0;entryX=1;entryY=0.5;entryDx=0;entryDy=0;" edge="1" parent="1" source="XnaU9KFg2EMBAnlqkyF9-6" target="XnaU9KFg2EMBAnlqkyF9-7">
          <mxGeometry relative="1" as="geometry" />
        </mxCell>
        <mxCell id="XnaU9KFg2EMBAnlqkyF9-6" value="标识位设定为&lt;font color=&quot;#1a1a1a&quot;&gt;false&lt;/font&gt;" style="rounded=1;whiteSpace=wrap;html=1;fillColor=none;" vertex="1" parent="1">
          <mxGeometry x="580" y="510" width="120" height="60" as="geometry" />
        </mxCell>
        <mxCell id="XnaU9KFg2EMBAnlqkyF9-13" style="edgeStyle=orthogonalEdgeStyle;rounded=0;orthogonalLoop=1;jettySize=auto;html=1;exitX=0.5;exitY=1;exitDx=0;exitDy=0;" edge="1" parent="1" source="XnaU9KFg2EMBAnlqkyF9-7" target="XnaU9KFg2EMBAnlqkyF9-8">
          <mxGeometry relative="1" as="geometry" />
        </mxCell>
        <mxCell id="XnaU9KFg2EMBAnlqkyF9-7" value="更新标识位" style="rounded=1;whiteSpace=wrap;html=1;fillColor=none;" vertex="1" parent="1">
          <mxGeometry x="260" y="630" width="120" height="60" as="geometry" />
        </mxCell>
        <mxCell id="XnaU9KFg2EMBAnlqkyF9-8" value="结束" style="ellipse;whiteSpace=wrap;html=1;fillColor=none;" vertex="1" parent="1">
          <mxGeometry x="260" y="760" width="120" height="80" as="geometry" />
        </mxCell>
        <mxCell id="XnaU9KFg2EMBAnlqkyF9-16" style="edgeStyle=orthogonalEdgeStyle;rounded=0;orthogonalLoop=1;jettySize=auto;html=1;exitX=0.5;exitY=1;exitDx=0;exitDy=0;entryX=0.5;entryY=0;entryDx=0;entryDy=0;" edge="1" parent="1" source="XnaU9KFg2EMBAnlqkyF9-14" target="XnaU9KFg2EMBAnlqkyF9-5">
          <mxGeometry relative="1" as="geometry" />
        </mxCell>
        <mxCell id="XnaU9KFg2EMBAnlqkyF9-19" style="edgeStyle=orthogonalEdgeStyle;rounded=0;orthogonalLoop=1;jettySize=auto;html=1;exitX=1;exitY=0.5;exitDx=0;exitDy=0;" edge="1" parent="1" source="XnaU9KFg2EMBAnlqkyF9-14" target="XnaU9KFg2EMBAnlqkyF9-6">
          <mxGeometry relative="1" as="geometry" />
        </mxCell>
        <mxCell id="XnaU9KFg2EMBAnlqkyF9-14" value="插入条数是否 &amp;gt; 0" style="rhombus;whiteSpace=wrap;html=1;fillColor=none;" vertex="1" parent="1">
          <mxGeometry x="450" y="320" width="150" height="70" as="geometry" />
        </mxCell>
        <mxCell id="XnaU9KFg2EMBAnlqkyF9-17" value="否" style="text;html=1;align=center;verticalAlign=middle;whiteSpace=wrap;rounded=0;" vertex="1" parent="1">
          <mxGeometry x="270" y="400" width="60" height="30" as="geometry" />
        </mxCell>
        <mxCell id="XnaU9KFg2EMBAnlqkyF9-18" value="是" style="text;html=1;align=center;verticalAlign=middle;whiteSpace=wrap;rounded=0;" vertex="1" parent="1">
          <mxGeometry x="384" y="320" width="60" height="30" as="geometry" />
        </mxCell>
        <mxCell id="XnaU9KFg2EMBAnlqkyF9-21" value="是" style="text;html=1;align=center;verticalAlign=middle;whiteSpace=wrap;rounded=0;" vertex="1" parent="1">
          <mxGeometry x="470" y="400" width="60" height="30" as="geometry" />
        </mxCell>
        <mxCell id="XnaU9KFg2EMBAnlqkyF9-22" value="否" style="text;html=1;align=center;verticalAlign=middle;whiteSpace=wrap;rounded=0;" vertex="1" parent="1">
          <mxGeometry x="590" y="320" width="60" height="30" as="geometry" />
        </mxCell>
        <mxCell id="XnaU9KFg2EMBAnlqkyF9-26" style="edgeStyle=orthogonalEdgeStyle;rounded=0;orthogonalLoop=1;jettySize=auto;html=1;exitX=0.5;exitY=1;exitDx=0;exitDy=0;entryX=0.5;entryY=0;entryDx=0;entryDy=0;" edge="1" parent="1" source="XnaU9KFg2EMBAnlqkyF9-23" target="XnaU9KFg2EMBAnlqkyF9-3">
          <mxGeometry relative="1" as="geometry" />
        </mxCell>
        <mxCell id="XnaU9KFg2EMBAnlqkyF9-23" value="执行模拟询价" style="rounded=1;whiteSpace=wrap;html=1;fillColor=none;" vertex="1" parent="1">
          <mxGeometry x="260" y="210" width="120" height="60" as="geometry" />
        </mxCell>
        <mxCell id="XnaU9KFg2EMBAnlqkyF9-24" value="" style="edgeStyle=orthogonalEdgeStyle;rounded=0;orthogonalLoop=1;jettySize=auto;html=1;exitX=0.5;exitY=1;exitDx=0;exitDy=0;" edge="1" parent="1" source="XnaU9KFg2EMBAnlqkyF9-1" target="XnaU9KFg2EMBAnlqkyF9-2">
          <mxGeometry relative="1" as="geometry">
            <mxPoint x="320" y="80" as="sourcePoint" />
            <mxPoint x="320" y="120" as="targetPoint" />
          </mxGeometry>
        </mxCell>
        <mxCell id="XnaU9KFg2EMBAnlqkyF9-25" style="edgeStyle=orthogonalEdgeStyle;rounded=0;orthogonalLoop=1;jettySize=auto;html=1;exitX=0.5;exitY=1;exitDx=0;exitDy=0;entryX=0.5;entryY=0;entryDx=0;entryDy=0;" edge="1" parent="1" source="XnaU9KFg2EMBAnlqkyF9-2" target="XnaU9KFg2EMBAnlqkyF9-23">
          <mxGeometry relative="1" as="geometry" />
        </mxCell>
        <mxCell id="XnaU9KFg2EMBAnlqkyF9-2" value="标识位设定为false" style="rounded=1;whiteSpace=wrap;html=1;fillColor=none;" vertex="1" parent="1">
          <mxGeometry x="260" y="110" width="120" height="60" as="geometry" />
        </mxCell>
      </root>
    </mxGraphModel>
  </diagram>
</mxfile>
